# xmcd
#
# Track frame offsets:
#	150
#	15933
#	37643
#	51197
#	64073
#	81623
#	101527
#	114844
#	135576
#	147976
#	164896
#	177133
#	188050
#	202506
#	214773
#	232916
#
# Disc length: 3322 seconds
#
# Revision: 0
# Processed by: cddbd v1.5.1PL0 Copyright (c) Steve Scherf et al.
# Submitted via: dBpowerAMP V4.0
#
DISCID=cc0cf810
DTITLE=Jorge Moises - Canta Barretao
DYEAR=1900
DGENRE=Country
TTITLE0=Canta Barretao
TTITLE1=Rodeio e Show(Resposta do Cowboy Viado)
TTITLE2=Eguinha Turdia
TTITLE3=Mior que Pode Over
TTITLE4=Filho do Fazendeiro
TTITLE5=Menino da Porteira
TTITLE6=Casa Baguncada
TTITLE7=Anjos da Pinga
TTITLE8=Eu te Amo Porra
TTITLE9=As Muie Vao Mandar No Mundo
TTITLE10=Umbu
TTITLE11=Fazendo Coco
TTITLE12=Pedagio
TTITLE13=Rei da Zona
TTITLE14=Muie de Zona
TTITLE15=Pedagio
EXTD=
EXTT0=
EXTT1=
EXTT2=
EXTT3=
EXTT4=
EXTT5=
EXTT6=
EXTT7=
EXTT8=
EXTT9=
EXTT10=
EXTT11=
EXTT12=
EXTT13=
EXTT14=
EXTT15=
PLAYORDER=
